PathFileType	4	(X/Y/Z)	./resultDataOpenSim/trcMotMarkerGrf/sub06/qtm-05-04.trc
DataRate	CameraRate	NumFrames	NumMarkers	Units	OrigDataRate	OrigDataStartFrame	OrigNumFrames
250.000000	250.000000	12	24	m	250.000000	391	521
Frame#	Time	L.Toe.Tip			R.Toe.Tip			L.Ankle.Lat			R.Ankle.Lat			L.Ankle.Med			R.Ankle.Med			L.Heel			R.Heel			L.Knee.Lat			R.Knee.Lat			L.Knee.Med			R.Knee.Med			L.Thigh.Upper			R.Thigh.Upper			L.ASIS			R.ASIS			V.Sacral			L.Acromium			R.Acromium			C7			L.Elbow			R.Elbow			L.Wrist.Lat			R.Wrist.Lat
		X1	Y1	Z1	X2	Y2	Z2	X3	Y3	Z3	X4	Y4	Z4	X5	Y5	Z5	X6	Y6	Z6	X7	Y7	Z7	X8	Y8	Z8	X9	Y9	Z9	X10	Y10	Z10	X11	Y11	Z11	X12	Y12	Z12	X13	Y13	Z13	X14	Y14	Z14	X15	Y15	Z15	X16	Y16	Z16	X17	Y17	Z17	X18	Y18	Z18	X19	Y19	Z19	X20	Y20	Z20	X21	Y21	Z21	X22	Y22	Z22	X23	Y23	Z23	X24	Y24	Z24

391	1.56	1.2641576	0.071922222	-0.068591658	0.9212796	0.03549347	0.10869745	1.1462637	0.12016532	-0.080330587	0.78778038	0.075742442	0.12440173	1.1597561	0.13240685	0.004107067	0.81873352	0.10139245	0.04217238	1.0733342	0.096322444	-0.031393507	0.73708999	0.064182167	0.059817416	1.2402447	0.4888471	-0.074358506	0.92318773	0.44550861	0.17067317	1.231567	0.47807558	0.045040099	0.91021776	0.44583282	0.039240807	1.0407917	0.83003986	-0.1048439	0.97845429	0.80969722	0.23574692	1.0985338	0.87688869	-0.047350435	1.0804093	0.86545685	0.19813564	0.90385935	0.93818728	0.065865934	1.0306734	1.3542292	-0.10428321	1.0351059	1.338825	0.25653178	0.95224594	1.3804843	0.07766643	0.93026515	1.0623127	-0.16467616	1.029242	1.0155837	0.33309607	1.0037205	0.83861102	-0.22712316	1.2744024	0.96884833	0.29255108
392	1.564	1.2836263	0.072470129	-0.067832443	0.92140402	0.03541465	0.10868089	1.164222	0.11655034	-0.0792542	0.78809009	0.076260294	0.12430437	1.1778884	0.12925067	0.0047217453	0.81908592	0.10162875	0.041874448	1.0920757	0.090466767	-0.030482909	0.73733392	0.064883909	0.059691643	1.2465124	0.48807004	-0.073320473	0.92571579	0.44518044	0.17045182	1.2374822	0.4770093	0.045928128	0.91315765	0.44527452	0.038832746	1.0477437	0.82907791	-0.10514881	0.98334957	0.80869128	0.23541286	1.1050407	0.87581537	-0.047377194	1.0861184	0.86418652	0.19816426	0.90996114	0.93707865	0.065194122	1.0361025	1.3530719	-0.10436656	1.0408069	1.337764	0.2564591	0.95771335	1.3794074	0.077706597	0.93463308	1.0619082	-0.16446735	1.0368063	1.014512	0.33336955	1.0053419	0.83781787	-0.22833592	1.2822478	0.97059631	0.29137599
393	1.568	1.3029833	0.073309341	-0.066993638	0.9215163	0.035361199	0.10865402	1.1821639	0.11321107	-0.078075482	0.78843853	0.07678932	0.12421692	1.1963538	0.12651722	0.0051966844	0.81952541	0.10183446	0.041654558	1.1109282	0.084966204	-0.029577033	0.7375808	0.065592611	0.059586224	1.252614	0.48713988	-0.072347314	0.92836544	0.44477529	0.17022466	1.2432904	0.47578308	0.046775577	0.91617611	0.44465526	0.038415791	1.0545731	0.82806362	-0.10539953	0.98827039	0.80763795	0.2350726	1.1115662	0.87467207	-0.04741016	1.0920937	0.86275355	0.19802002	0.91590122	0.93594571	0.064379132	1.0415496	1.3518559	-0.10446096	1.0465195	1.3366292	0.25637449	0.96318439	1.3782641	0.077779232	0.93908944	1.0614158	-0.16424446	1.0443502	1.0133946	0.33363452	1.007042	0.8369839	-0.22952812	1.29003	0.97221071	0.29022372
394	1.572	1.3221881	0.074448949	-0.066066648	0.92161318	0.035326805	0.10861222	1.2000521	0.11017551	-0.076845607	0.78881883	0.077324687	0.12413351	1.2147358	0.12410177	0.0057882129	0.82006281	0.10199177	0.041517481	1.1298659	0.079812754	-0.028532682	0.73782888	0.06631684	0.05950438	1.2585523	0.48605425	-0.071438358	0.93113501	0.44429963	0.16999587	1.2490159	0.47440083	0.047592859	0.91926086	0.44397032	0.038018818	1.0612179	0.82698761	-0.10557395	0.99321641	0.8065408	0.23472939	1.118111	0.87346183	-0.047446074	1.0982662	0.86122611	0.19778944	0.92170934	0.9347694	0.063383716	1.0470124	1.3505858	-0.10457114	1.0522431	1.3354251	0.2562803	0.9686652	1.3770619	0.077854151	0.94362826	1.060851	-0.16401177	1.0518619	1.0122243	0.33386689	1.0088619	0.83611385	-0.23071185	1.2977494	0.9736889	0.28911087
395	1.576	1.341192	0.075896679	-0.065067991	0.92169783	0.035294384	0.10855185	1.2178451	0.10745593	-0.075581972	0.7892116	0.077855204	0.12404921	1.2324721	0.12184005	0.0068306001	0.82067927	0.10210033	0.04143686	1.1488277	0.074980441	-0.027228369	0.73807516	0.067063094	0.059443094	1.2643329	0.48480771	-0.070605657	0.93401572	0.44375942	0.16976513	1.2546643	0.47287285	0.048384751	0.92237723	0.44322945	0.037687832	1.0677716	0.82584432	-0.10571649	0.99818474	0.80539986	0.23438433	1.1246769	0.87218605	-0.047485315	1.1043663	0.85973357	0.19766994	0.92749364	0.93354331	0.062305365	1.0524909	1.3492614	-0.10470081	1.0579788	1.3341575	0.25617793	0.97416126	1.3758093	0.07788855	0.94824444	1.0602176	-0.16377883	1.0593898	1.011019	0.33411707	1.010806	0.83520685	-0.23188854	1.3054031	0.97503076	0.28803297
396	1.58	1.3599402	0.077645839	-0.064025202	0.92177585	0.035256622	0.10847688	1.2354966	0.10505593	-0.07427176	0.7895995	0.078381005	0.12396688	1.2493538	0.11968255	0.0084221923	0.82128994	0.10221231	0.041356093	1.167741	0.07045956	-0.025635211	0.73831945	0.067837927	0.059400469	1.2699737	0.48339407	-0.069862111	0.93699981	0.4431622	0.16953499	1.2602182	0.47120815	0.049157706	0.92550618	0.44246025	0.037441148	1.0743533	0.82463848	-0.1058747	1.0031754	0.80421361	0.23403553	1.1312654	0.87085	-0.04752452	1.1101627	0.85835014	0.19776535	0.93340053	0.9322699	0.061314099	1.05799	1.3478808	-0.10485078	1.0637275	1.3328344	0.2560668	0.9796765	1.3745118	0.077861165	0.95293499	1.0595072	-0.1635539	1.0670443	1.0098269	0.33452324	1.012852	0.83426055	-0.23305217	1.3129913	0.97624038	0.28698429
397	1.584	1.3783808	0.079663645	-0.062947402	0.92185199	0.035217684	0.10839797	1.2529665	0.10297589	-0.072901755	0.78997621	0.078911665	0.12389451	1.2657114	0.11773574	0.010343299	0.82178636	0.10240232	0.041213452	1.1865381	0.066269454	-0.023799982	0.73857165	0.068645512	0.059369499	1.2755026	0.48181187	-0.069202199	0.94008615	0.44252082	0.1693145	1.2656704	0.46941299	0.049925229	0.92866119	0.44168849	0.037257232	1.0810071	0.82337717	-0.1060558	1.0081984	0.80298245	0.23368289	1.1378753	0.86945942	-0.047560253	1.1156822	0.85703173	0.19797659	0.9395422	0.9309341	0.060496999	1.0635179	1.3464428	-0.10502086	1.069486	1.3314639	0.25594489	0.98521496	1.3731715	0.077779357	0.95769414	1.0587135	-0.16333978	1.0749004	1.0086865	0.3351898	1.0149853	0.83327321	-0.23419613	1.3205164	0.97732554	0.28596762
398	1.588	1.3964687	0.081896384	-0.061824325	0.92192709	0.035184067	0.10832699	1.2702185	0.10120994	-0.071471091	0.79034927	0.079453062	0.12383908	1.2820052	0.1161248	0.01231376	0.82214462	0.10269373	0.040999333	1.2051584	0.062439468	-0.021752275	0.73885304	0.069484036	0.059330713	1.280942	0.48006594	-0.068599691	0.94327035	0.44184583	0.16911136	1.2710405	0.46749664	0.050698265	0.93187027	0.44092645	0.037096225	1.0877173	0.82206271	-0.10624596	1.013266	0.80170615	0.23332787	1.1445052	0.86801638	-0.047594534	1.1211121	0.85567605	0.19814924	0.94591599	0.92951281	0.059777972	1.0690798	1.3449474	-0.1052111	1.0752476	1.3300507	0.25580957	0.99077639	1.3717904	0.077661214	0.96251584	1.0578351	-0.16313734	1.0828719	1.0075701	0.33602635	1.0172147	0.83224204	-0.23531574	1.3279844	0.97829186	0.28498699
399	1.592	1.4141564	0.084285114	-0.060648288	0.92199908	0.03515797	0.10826995	1.2872011	0.099746658	-0.069986561	0.79073083	0.080011757	0.1238047	1.2983686	0.11488303	0.014216463	0.82246704	0.10303104	0.040779187	1.2235489	0.059014231	-0.019556848	0.73918587	0.070351498	0.059261291	1.2863062	0.47816361	-0.068018234	0.94654118	0.441139	0.16893056	1.2763627	0.46547704	0.051483066	0.93515364	0.44018062	0.036926507	1.0944563	0.82069626	-0.10643598	1.0183814	0.8003795	0.23297154	1.1511565	0.86652185	-0.047625417	1.1266045	0.8542097	0.19822607	0.95239539	0.92801489	0.059039136	1.0746768	1.3433978	-0.10542329	1.0810083	1.3285963	0.25566036	0.99635859	1.370373	0.077516258	0.96739951	1.0568713	-0.16294484	1.0907661	1.0064051	0.33680988	1.019556	0.83116442	-0.23640946	1.335407	0.97913693	0.28404535
400	1.596	1.4313828	0.08678664	-0.059431468	0.922067	0.035135118	0.10822139	1.3038409	0.098576633	-0.068451001	0.7911261	0.080603763	0.12379556	1.3146535	0.11400447	0.016020034	0.82289431	0.10333617	0.04064257	1.241667	0.056058579	-0.01737985	0.73957265	0.071251509	0.059162705	1.2916281	0.47611351	-0.067418114	0.94989458	0.44040299	0.16877866	1.2816688	0.46337696	0.052291687	0.93852092	0.43945776	0.036737528	1.101207	0.81927989	-0.10661859	1.0235391	0.79899493	0.23261272	1.1578343	0.86498018	-0.04764451	1.132213	0.85261364	0.19823957	0.95884846	0.92647966	0.058291489	1.0803135	1.3418019	-0.10566076	1.08677	1.3271034	0.2555009	1.0019664	1.3689204	0.077342585	0.97234959	1.055826	-0.16274944	1.0984746	1.0051535	0.33740763	1.0220177	0.83004322	-0.23747765	1.3427896	0.97985508	0.28314376
401	1.6	1.4480765	0.089381106	-0.05820812	0.92213198	0.035108516	0.10817065	1.3200574	0.097689757	-0.066863302	0.79153849	0.081240135	0.12382299	1.3306721	0.11349441	0.017672088	0.82347164	0.10359162	0.040622019	1.2594773	0.053585916	-0.015290053	0.7399706	0.072197942	0.05909781	1.2969692	0.47393	-0.066759309	0.95334744	0.43965013	0.16865776	1.286976	0.46121376	0.053138183	0.94197499	0.43875949	0.036536712	1.1079685	0.81781516	-0.10678415	1.0287256	0.79755493	0.23223603	1.1645414	0.86340094	-0.047649611	1.1378993	0.85088654	0.19826655	0.96524941	0.9249336	0.057630568	1.0859995	1.3401691	-0.10592755	1.0925335	1.3255776	0.25533468	1.0076078	1.3674311	0.077137852	0.97737172	1.0547134	-0.1625295	1.1060199	1.00383	0.33783503	1.0246086	0.82888731	-0.23852026	1.3501206	0.98044817	0.28227842
402	1.604	1.4641812	0.092051776	-0.057025932	0.92219489	0.03507538	0.10811507	1.3357803	0.097061782	-0.065242235	0.7919834	0.081907686	0.12390649	1.3462639	0.11332337	0.019144513	0.82410746	0.10386254	0.040666352	1.2769009	0.051506011	-0.013159919	0.74029399	0.073219301	0.059190772	1.3023853	0.47164269	-0.066021969	0.95694718	0.43889815	0.16855713	1.2922949	0.45899891	0.054028048	0.94551286	0.43807879	0.036339672	1.1147505	0.81630422	-0.1069262	1.0339228	0.79607789	0.23180522	1.1712728	0.86179534	-0.047645771	1.1435566	0.84899813	0.19842343	0.97163446	0.92337061	0.057050771	1.0917402	1.3385065	-0.10622795	1.0982944	1.3240266	0.25516064	1.0132852	1.3659102	0.076904245	0.98246866	1.0535564	-0.16226689	1.1134587	1.0024616	0.33815093	1.0273464	0.82770528	-0.23953496	1.3573855	0.98092424	0.281442
